<svg width="141" height="80" viewBox="0 0 141 80" fill="none" xmlns="http://www.w3.org/2000/svg">
<path d="M5.97888 79.2161L65.4113 75.9665V42.4702L49.9837 43.3139V48.9383L22.9854 50.4131L5.97888 56.2187V79.2161ZM49.9837 59.8621V65.0802L21.4065 66.6425V61.4244L49.9837 59.8621Z" fill="#CA4491"/>
<path d="M65.4113 40.108V35.9335L50.8512 40.9079L65.4113 40.108Z" fill="#CA4491"/>
<path d="M21.4064 44.8762L5.97888 45.7199V56.2187L22.9854 50.4131L21.4064 50.5006V44.8762Z" fill="#662D91"/>
<path d="M49.9837 4.93071V15.6858L41.4835 16.1482V5.80561L26.0559 6.64927V13.0048L15.4276 13.586V7.23045L0 8.07411V43.6076L41.4897 41.3391V29.5217L49.9899 29.0593V40.9579L50.8574 40.9079L65.4175 35.9398V4.08705L49.9837 4.93071ZM26.0497 30.0342L15.4214 30.6153V24.7472L26.0497 24.1661V30.0342Z" fill="#662D91"/>
<path d="M80.764 59.8871L124.769 57.4811V73.2106L140.197 72.3669V43.5951L80.764 46.851V59.8871Z" fill="#CA4491"/>
<path d="M120.594 17.4481V17.1043L119.389 17.5168L120.594 17.4481Z" fill="#662D91"/>
<path d="M79.8155 44.1263C83.3291 42.1391 86.5557 40.2143 89.5014 38.3395C92.4409 36.4647 95.2181 34.5087 97.8455 32.4651C100.523 34.1649 103.25 35.7585 106.034 37.2334C108.817 38.7144 111.757 40.208 114.852 41.7204L122.959 30.8466C120.332 29.4155 117.629 27.8219 114.852 26.0721C112.287 24.4598 110.009 22.91 107.981 21.4039L72.3513 33.565L79.8155 44.1263Z" fill="#CA4491"/>
<path d="M105.64 5.88059V0.0124969L89.4203 0.899898V6.76799L74.2298 7.59915V19.9853L89.3454 19.1604C89.2393 19.929 88.9897 20.6039 88.5965 21.1976C88.2033 21.7913 87.6354 22.4037 86.9052 23.0412C84.646 24.9035 82.2994 26.647 79.8592 28.2781C77.419 29.9092 74.8352 31.5527 72.1079 33.2275L72.3513 33.5713L107.981 21.4101C107.806 21.2789 107.625 21.1476 107.45 21.0227C106.926 20.6727 106.533 20.2727 106.271 19.8228C106.009 19.3791 105.821 18.8541 105.722 18.2667L119.389 17.5168L120.6 17.1043V5.06193L105.64 5.88059Z" fill="#662D91"/>
<path d="M124.769 15.6795V41.9953L140.197 41.1517V10.4113L124.769 15.6795Z" fill="#CA4491"/>
<path d="M140.197 0L124.769 0.843656V15.6795L140.197 10.4113V0Z" fill="#662D91"/>
</svg>
