<svg width="74" height="76" viewBox="0 0 74 76" fill="none" xmlns="http://www.w3.org/2000/svg">
<path d="M43.4557 19.7478C43.4557 23.4974 42.6443 26.6408 41.0154 29.1717C39.3866 31.7027 36.8153 33.94 33.3017 35.871C28.9455 38.227 24.4957 40.5517 19.9585 42.8327C15.4214 45.12 10.6034 47.351 5.51076 49.532L0 37.2833C4.66822 35.0211 9.24908 32.7026 13.7363 30.3404C18.2235 27.9781 22.2801 25.7159 25.8999 23.5661C26.6363 23.1474 27.173 22.5975 27.5163 21.9288C27.8595 21.2601 28.0281 20.5165 28.0281 19.6978V16.4357L3.2328 17.7918V4.26203L43.4619 2.06227V19.7478H43.4557ZM67.4708 71.892L7.56401 75.1666V50.3944L22.9916 49.5507V60.9619L67.4708 58.531V71.892ZM66.285 51.5817L50.8574 52.4254V0.843657L66.285 0V17.1981L73.9988 16.7794V30.4716L66.285 30.8903V51.5817Z" fill="#662D91"/>
</svg>
