<svg width="67" height="73" viewBox="0 0 67 73" fill="none" xmlns="http://www.w3.org/2000/svg">
<path d="M66.5159 71.9607L51.0883 72.8044V62.0493L44.398 69.3423L0 71.7732V58.081L51.0946 55.2876V0.843656L66.5222 0V71.9607H66.5159ZM46.9943 27.8781C46.9943 31.359 46.3639 34.4899 45.1033 37.2708C43.8426 40.058 42.1513 42.4453 40.0294 44.4325C37.9012 46.4261 35.4236 47.9822 32.5902 49.1195C29.7568 50.2507 26.7362 50.9068 23.5346 51.0818C20.333 51.2568 17.3123 50.9318 14.479 50.1069C11.6456 49.282 9.16792 47.9947 7.03976 46.2386C4.9116 44.4825 3.2203 42.2765 1.95963 39.6331C0.698957 36.9834 0.0686412 33.9212 0.0686412 30.4466V25.3972C0.0686412 21.9226 0.698957 18.7917 1.95963 16.0045C3.2203 13.2173 4.9116 10.83 7.03976 8.84276C9.16792 6.84924 11.6456 5.29316 14.479 4.15579C17.3123 3.02466 20.333 2.36849 23.5346 2.19351C26.7362 2.01853 29.7506 2.34349 32.5902 3.16215C35.4236 3.98706 37.9012 5.27441 40.0294 7.03672C42.1575 8.79277 43.8488 10.9988 45.1033 13.6485C46.3639 16.2982 46.9943 19.3603 46.9943 22.835V27.8781ZM31.5667 23.6724C31.5667 21.3914 30.8552 19.4853 29.4385 17.9605C28.0218 16.4357 26.0559 15.742 23.5346 15.8795C21.0132 16.017 19.0474 16.9294 17.6307 18.6042C16.214 20.2852 15.5025 22.2663 15.5025 24.5473V29.603C15.5025 31.8839 16.2077 33.79 17.6307 35.3148C19.0474 36.8396 21.0132 37.5333 23.5346 37.3958C26.0559 37.2583 28.0218 36.3522 29.4385 34.6711C30.8552 32.9901 31.5667 31.009 31.5667 28.728V23.6724Z" fill="#662D91"/>
</svg>
