<svg width="30" height="35" viewBox="0 0 30 35" fill="none" xmlns="http://www.w3.org/2000/svg">
<path d="M13.961 34.6674C14.2793 34.6674 14.6038 34.6612 14.9408 34.6424C19.2595 34.405 22.9105 32.6614 25.4942 29.5992C27.897 26.7496 29.1639 23.2312 29.1639 19.4191V14.3697C29.1639 10.4451 27.8221 6.92678 25.2821 4.18958C23.3599 2.12106 19.8899 -0.284918 14.2231 0.0275468C9.90436 0.26502 6.25343 2.00858 3.66968 5.07074C1.26691 7.92042 0 11.4388 0 15.2508V20.3003C0 24.2311 1.34178 27.7495 3.88185 30.4804C5.68548 32.4239 8.87462 34.6674 13.961 34.6674ZM13.0997 15.2446C13.0997 14.3947 13.3306 13.9447 13.6801 13.5323C13.78 13.4136 13.9797 13.1761 14.9346 13.1261C15.3527 13.1011 15.6148 13.1386 15.7209 13.1698C15.8645 13.3323 16.0517 13.601 16.0517 14.3697V19.4191C16.0517 20.269 15.8208 20.719 15.4713 21.1314C15.3714 21.2502 15.1717 21.4876 14.2168 21.5376C13.7675 21.5626 13.5241 21.5189 13.4305 21.4939C13.287 21.3314 13.0997 21.0689 13.0997 20.294V15.2446Z" fill="#FCEE21"/>
</svg>
