<svg width="70" height="73" viewBox="0 0 70 73" fill="none" xmlns="http://www.w3.org/2000/svg">
<path d="M41.3337 69.0173C38.6064 65.6864 35.9416 62.2493 33.3453 58.6997C30.7491 55.1501 28.4524 51.688 26.4553 48.3196C24.4582 51.9067 22.1241 55.6625 19.4468 59.5808C16.7694 63.5054 14.092 67.2737 11.4147 70.8983L0 62.393C3.46372 57.4248 6.62788 52.4566 9.48623 47.4884C12.3446 42.5265 14.7473 37.7583 16.6883 33.1963C17.2624 31.9152 17.6618 30.4404 17.8678 28.7718C18.0738 27.1032 18.1798 25.4847 18.1798 23.9036V3.61835L34.7121 2.7122V23.0037C34.7121 24.5785 34.8182 26.1908 35.0241 27.8344C35.2363 29.478 35.6295 30.909 36.2037 32.1277C38.1446 36.4772 40.4413 40.8454 43.0937 45.2387C45.7398 49.632 48.723 54.1565 52.0307 58.8059L41.3337 69.0173ZM69.4429 71.9607L54.0153 72.8044V0.843655L69.4429 0V71.9607Z" fill="#662D91"/>
</svg>
