<svg width="235" height="96" viewBox="0 0 235 96" fill="none" xmlns="http://www.w3.org/2000/svg">
<path d="M206.432 9.18648C206.319 9.09274 206.207 8.999 206.095 8.90526C203.286 6.58052 199.991 4.86196 196.309 3.79333C192.776 2.76844 189.001 2.35599 185.075 2.57471C181.174 2.78719 177.43 3.5996 173.947 4.99319C170.365 6.42428 167.176 8.43656 164.461 10.98C161.715 13.5547 159.506 16.6669 157.89 20.229C157.721 20.5977 157.571 20.9664 157.421 21.3414V4.24328L128.888 5.8056V6.61801L85.0016 9.01774V8.20533L56.468 9.76766V54.8564C54.4834 51.4193 52.7235 47.9759 51.2131 44.595L51.1507 44.4575C50.8761 43.8826 50.6702 43.0827 50.5516 42.1453C50.3769 40.7892 50.2895 39.4393 50.2895 38.1457V10.9175L20.6513 12.5361V39.0394C20.6513 40.3267 20.5639 41.6891 20.3892 43.0827C20.2643 44.0951 20.0397 44.9512 19.7338 45.6324L19.6777 45.7574C17.8491 50.0569 15.54 54.6252 12.8251 59.3434C10.0666 64.1303 6.97738 68.9861 3.63848 73.773L0 78.9912L21.7871 95.2206L25.694 89.9275C28.4212 86.2341 31.1735 82.3596 33.8633 78.41C34.475 77.5163 35.0678 76.6227 35.6482 75.7415C36.1101 76.3915 36.5781 77.0477 37.0587 77.7038C39.7049 81.3284 42.4696 84.8968 45.2718 88.3151L49.7465 93.7708L56.4618 87.3778V94.8707L84.9954 93.3083V65.349L85.5883 66.6613V93.2708L158.601 89.2775V85.4467L206.425 82.8345V86.6653L234.959 85.103V0L206.425 1.56233V9.18648H206.432Z" fill="#FCEE21"/>
</svg>
