<svg width="222" height="225" viewBox="0 0 222 225" fill="none" xmlns="http://www.w3.org/2000/svg">
<path d="M221.602 112.618C221.784 174.4 171.478 225.144 110.564 225C49.8868 224.859 -0.106627 174.143 0.000170793 112.281C0.106969 50.6679 50.0727 -0.0882192 110.995 0.000115127C171.799 0.0884495 221.911 50.8847 221.602 112.618ZM9.33907 112.402C9.13734 169.084 54.6966 215.419 110.584 215.552C166.625 215.684 212.252 169.381 212.35 112.695C212.449 55.8154 166.823 9.52015 110.971 9.44386C55.0645 9.36355 9.2481 55.5825 9.33907 112.402Z" fill="#FCEE21" fill-opacity="0.15"/>
<path d="M110.845 18.1943C160.667 17.7933 203.817 59.9495 203.687 112.566C203.552 165.675 161.018 206.849 110.747 206.808C59.6623 206.768 17.7713 164.083 17.9173 112.201C18.0672 60.0939 60.3568 17.9136 110.845 18.1943ZM115.126 191.111C115.13 191.111 115.138 191.111 115.142 191.111C115.142 192.579 115.209 194.055 115.122 195.518C115.044 196.866 115.505 197.179 116.831 197.091C127.326 196.413 137.246 193.625 146.715 189.025C148.084 188.359 148.045 187.718 147.37 186.579C145.946 184.18 144.593 181.734 143.259 179.283C142.296 177.514 142.596 175.766 143.689 174.19C144.798 172.585 146.479 172.301 148.266 172.537C149.943 172.758 150.882 174.021 151.675 175.329C153.056 177.599 154.35 179.925 155.629 182.259C156.161 183.226 156.662 183.434 157.633 182.748C166.278 176.604 173.7 169.236 179.571 160.289C180.285 159.202 180.001 158.684 178.983 158.123C176.619 156.815 174.252 155.5 171.971 154.048C169.371 152.396 168.665 149.676 170.062 147.346C171.423 145.08 174.248 144.483 176.805 145.95C179.034 147.23 181.275 148.493 183.461 149.849C184.657 150.591 185.359 150.37 185.876 149.063C186.661 147.081 187.553 145.148 188.33 143.163C191.337 135.479 192.998 127.477 193.744 119.259C193.89 117.639 193.408 116.961 191.704 117.033C189.017 117.15 186.318 117.106 183.627 117.037C181.279 116.981 179.677 115.489 179.302 113.171C178.849 110.368 180.806 107.993 184.006 107.769C186.555 107.592 189.131 107.624 191.688 107.713C193.373 107.769 193.949 107.067 193.728 105.455C193.459 103.473 193.242 101.484 192.974 99.5028C191.858 91.2328 189.317 83.408 185.88 75.8518C185.237 74.4361 184.637 74.3077 183.378 75.1259C181.275 76.4895 179.078 77.7008 176.888 78.912C174.019 80.4962 171.391 79.8946 170.054 77.416C168.748 75.0016 169.655 72.3264 172.39 70.6821C174.422 69.4548 176.458 68.2235 178.557 67.1246C180.06 66.3385 180.348 65.6407 179.283 64.1006C173.329 55.4776 166.049 48.2504 157.578 42.2103C156.54 41.4683 156.07 41.5886 155.483 42.6916C154.173 45.1581 152.823 47.6086 151.34 49.9709C149.785 52.4495 147.54 53.1233 145.251 52.0204C142.762 50.8212 141.937 48.0338 143.377 45.1822C144.454 43.0485 145.713 41.0031 146.905 38.9295C148.199 36.6796 148.219 36.6595 145.831 35.5004C136.721 31.0806 127.082 28.6823 117.064 27.6996C115.588 27.5553 115.067 28.0847 115.115 29.5887C115.201 32.1916 115.158 34.7985 115.13 37.4015C115.099 40.3974 113.343 42.4068 110.719 42.5071C108.079 42.6113 106.122 40.7544 105.909 37.7664C105.775 35.9055 105.858 34.0285 105.858 32.1595C105.854 27.7197 105.846 27.6234 101.534 28.0686C92.1745 29.0352 83.2455 31.59 74.7663 35.7691C73.338 36.475 73.1486 37.209 73.9456 38.5525C75.3384 40.8948 76.6563 43.2851 77.9189 45.6996C78.8974 47.5766 78.5541 49.626 77.1771 51.0658C75.7843 52.5177 73.7799 52.9549 72.1267 52.1006C70.797 51.4148 69.8697 50.2918 69.1437 48.9923C67.9403 46.8466 66.7093 44.7169 65.5611 42.5391C65.0718 41.6087 64.622 41.4683 63.7421 42.0779C54.892 48.1982 47.5176 55.8105 41.4137 64.7262C40.7548 65.6888 40.9047 66.158 41.899 66.7155C44.4795 68.1714 47.1033 69.5912 49.5141 71.3077C51.9446 73.0363 52.3076 75.5831 50.8083 77.7689C49.305 79.9588 46.8981 80.432 44.365 78.9922C42.3606 77.8532 40.372 76.674 38.3834 75.5069C36.1305 74.1874 36.0594 74.1834 34.927 76.6018C30.646 85.7462 28.3378 95.4119 27.3987 105.471C27.233 107.227 27.6039 107.725 29.2729 107.717C32.094 107.705 34.927 107.444 37.7324 107.881C40.6127 108.33 42.0016 110.147 41.7846 113.015C41.607 115.377 39.6934 117.021 37.0182 117.054C34.3233 117.086 31.6285 117.114 28.9375 117.046C27.4934 117.009 27.1067 117.539 27.3632 118.971C27.6828 120.735 27.7499 122.548 27.9906 124.333C29.1466 132.924 31.518 141.15 35.1993 148.987C35.8148 150.298 36.3948 150.667 37.7205 149.817C39.8828 148.425 42.1357 147.178 44.3927 145.942C47.0836 144.471 49.7548 145.092 51.0884 147.414C52.4142 149.72 51.5895 152.476 49.013 154.08C46.9415 155.372 44.8622 156.655 42.7039 157.79C41.1178 158.624 40.8416 159.35 41.9463 160.954C47.8214 169.477 55.0578 176.56 63.391 182.556C64.6141 183.438 65.1665 183.141 65.8018 181.95C67.0841 179.544 68.3743 177.133 69.8224 174.831C71.4085 172.313 74.1547 171.747 76.5063 173.259C78.5344 174.567 79.0749 177.398 77.7176 179.837C76.4274 182.163 75.1411 184.493 73.7602 186.763C73.0815 187.878 73.1999 188.436 74.4151 189.025C83.7071 193.505 93.4253 196.292 103.708 197.05C105.46 197.179 105.988 196.742 105.957 194.933C105.901 191.941 105.602 188.917 106.217 185.945C106.695 183.639 108.738 182.175 111.003 182.408C113.414 182.652 115.004 184.285 115.111 186.711C115.178 188.171 115.126 189.639 115.126 191.111Z" fill="#FCEE21" fill-opacity="0.15"/>
<path d="M115.558 86.4804C115.558 93.7645 115.59 101.053 115.534 108.337C115.522 109.923 115.979 111.103 117.109 112.232C123.635 118.761 130.112 125.346 136.582 131.935C138.796 134.192 139.149 136.023 137.919 138.192C136.38 140.906 133.445 141.528 131.025 139.549C129.851 138.585 128.823 137.437 127.748 136.352C122.512 131.068 117.256 125.8 112.075 120.459C110.956 119.307 110.231 119.214 109.001 120.343C96.6639 131.638 84.2794 142.878 71.9028 154.129C71.2642 154.711 70.6215 155.285 69.9392 155.815C67.6067 157.626 65.1076 157.381 63.267 155.189C61.6564 153.27 61.95 150.495 64.0485 148.559C67.6107 145.279 71.2126 142.034 74.8026 138.782C83.4067 130.98 92.0148 123.186 100.623 115.384C100.968 115.071 101.258 114.677 101.646 114.444C105.526 112.115 106.268 108.642 106.176 104.265C105.907 91.3713 106.073 78.4696 106.093 65.5679C106.093 64.3713 106.165 63.1506 106.403 61.9861C106.835 59.882 108.775 58.3963 110.857 58.4043C112.956 58.4123 114.812 59.89 115.249 62.0463C115.471 63.1506 115.546 64.299 115.55 65.4313C115.57 72.4464 115.558 79.4614 115.558 86.4804Z" fill="#FCEE21" fill-opacity="0.15"/>
</svg>
